<mxfile host="app.diagrams.net" modified="2022-12-07T21:07:47.631Z" agent="5.0 (Macintosh; Intel Mac OS X 10_15_7) AppleWebKit/605.1.15 (KHTML, like Gecko) Version/16.1 Safari/605.1.15" version="20.6.0" etag="rL2xrvWA7XMO87MvHD-p" type="github">
  <diagram id="DE-VvAF2NjBl3VeyVkR_" name="Page-1">
    <mxGraphModel dx="1409" dy="600" grid="1" gridSize="4" guides="1" tooltips="1" connect="1" arrows="1" fold="1" page="1" pageScale="1" pageWidth="850" pageHeight="1100" math="0" shadow="0">
      <root>
        <mxCell id="0" />
        <mxCell id="1" parent="0" />
        <mxCell id="5iTLilzNBZOsbH6WJitM-1" value="" style="shape=trapezoid;perimeter=trapezoidPerimeter;whiteSpace=wrap;html=1;fixedSize=1;direction=south;size=50;fillColor=#dae8fc;strokeColor=#6c8ebf;" vertex="1" parent="1">
          <mxGeometry x="-640" y="132" width="20" height="360" as="geometry" />
        </mxCell>
        <mxCell id="5iTLilzNBZOsbH6WJitM-4" value="" style="shape=trapezoid;perimeter=trapezoidPerimeter;whiteSpace=wrap;html=1;fixedSize=1;direction=south;size=50;fillColor=#dae8fc;strokeColor=#6c8ebf;" vertex="1" parent="1">
          <mxGeometry x="-616" y="188" width="20" height="240" as="geometry" />
        </mxCell>
        <mxCell id="5iTLilzNBZOsbH6WJitM-5" value="" style="rounded=0;whiteSpace=wrap;html=1;direction=south;fillColor=#dae8fc;strokeColor=#6c8ebf;" vertex="1" parent="1">
          <mxGeometry x="-592" y="239" width="20" height="138" as="geometry" />
        </mxCell>
        <mxCell id="5iTLilzNBZOsbH6WJitM-6" value="" style="rounded=0;whiteSpace=wrap;html=1;direction=south;fillColor=#dae8fc;strokeColor=#6c8ebf;" vertex="1" parent="1">
          <mxGeometry x="-568" y="239" width="20" height="138" as="geometry" />
        </mxCell>
        <mxCell id="5iTLilzNBZOsbH6WJitM-7" value="" style="shape=trapezoid;perimeter=trapezoidPerimeter;whiteSpace=wrap;html=1;fixedSize=1;direction=south;size=21;fillColor=#dae8fc;strokeColor=#6c8ebf;" vertex="1" parent="1">
          <mxGeometry x="-544" y="239" width="20" height="137" as="geometry" />
        </mxCell>
        <mxCell id="5iTLilzNBZOsbH6WJitM-8" value="" style="rounded=0;whiteSpace=wrap;html=1;direction=south;fillColor=#dae8fc;strokeColor=#6c8ebf;" vertex="1" parent="1">
          <mxGeometry x="-520" y="260" width="20" height="96" as="geometry" />
        </mxCell>
        <mxCell id="5iTLilzNBZOsbH6WJitM-9" value="" style="rounded=0;whiteSpace=wrap;html=1;direction=south;fillColor=#dae8fc;strokeColor=#6c8ebf;" vertex="1" parent="1">
          <mxGeometry x="-496" y="260" width="20" height="96" as="geometry" />
        </mxCell>
        <mxCell id="5iTLilzNBZOsbH6WJitM-10" value="" style="rounded=0;whiteSpace=wrap;html=1;direction=south;fillColor=#fff2cc;strokeColor=#d6b656;" vertex="1" parent="1">
          <mxGeometry x="-672" y="132" width="20" height="360" as="geometry" />
        </mxCell>
        <mxCell id="5iTLilzNBZOsbH6WJitM-11" value="" style="rounded=0;whiteSpace=wrap;html=1;direction=south;fillColor=#dae8fc;strokeColor=#6c8ebf;" vertex="1" parent="1">
          <mxGeometry x="-472" y="260" width="20" height="96" as="geometry" />
        </mxCell>
        <mxCell id="5iTLilzNBZOsbH6WJitM-12" value="" style="shape=trapezoid;perimeter=trapezoidPerimeter;whiteSpace=wrap;html=1;fixedSize=1;direction=south;size=12;fillColor=#dae8fc;strokeColor=#6c8ebf;" vertex="1" parent="1">
          <mxGeometry x="-448" y="260" width="20" height="96" as="geometry" />
        </mxCell>
        <mxCell id="5iTLilzNBZOsbH6WJitM-13" value="" style="rounded=0;whiteSpace=wrap;html=1;direction=south;fillColor=#dae8fc;strokeColor=#6c8ebf;" vertex="1" parent="1">
          <mxGeometry x="-424" y="272" width="20" height="72" as="geometry" />
        </mxCell>
        <mxCell id="5iTLilzNBZOsbH6WJitM-14" value="" style="rounded=0;whiteSpace=wrap;html=1;direction=south;fillColor=#dae8fc;strokeColor=#6c8ebf;" vertex="1" parent="1">
          <mxGeometry x="-400" y="272" width="20" height="72" as="geometry" />
        </mxCell>
        <mxCell id="5iTLilzNBZOsbH6WJitM-15" value="" style="rounded=0;whiteSpace=wrap;html=1;direction=south;fillColor=#dae8fc;strokeColor=#6c8ebf;" vertex="1" parent="1">
          <mxGeometry x="-376" y="272" width="20" height="72" as="geometry" />
        </mxCell>
        <mxCell id="5iTLilzNBZOsbH6WJitM-16" value="" style="rounded=0;whiteSpace=wrap;html=1;direction=south;fillColor=#dae8fc;strokeColor=#6c8ebf;" vertex="1" parent="1">
          <mxGeometry x="-352" y="272" width="20" height="72" as="geometry" />
        </mxCell>
        <mxCell id="5iTLilzNBZOsbH6WJitM-17" value="" style="rounded=0;whiteSpace=wrap;html=1;direction=south;fillColor=#dae8fc;strokeColor=#6c8ebf;" vertex="1" parent="1">
          <mxGeometry x="-328" y="272" width="20" height="72" as="geometry" />
        </mxCell>
        <mxCell id="5iTLilzNBZOsbH6WJitM-18" value="" style="shape=trapezoid;perimeter=trapezoidPerimeter;whiteSpace=wrap;html=1;fixedSize=1;direction=south;size=8;fillColor=#dae8fc;strokeColor=#6c8ebf;" vertex="1" parent="1">
          <mxGeometry x="-304" y="272" width="20" height="72" as="geometry" />
        </mxCell>
        <mxCell id="5iTLilzNBZOsbH6WJitM-19" value="" style="rounded=0;whiteSpace=wrap;html=1;direction=south;fillColor=#dae8fc;strokeColor=#6c8ebf;" vertex="1" parent="1">
          <mxGeometry x="-280" y="280" width="20" height="56" as="geometry" />
        </mxCell>
        <mxCell id="5iTLilzNBZOsbH6WJitM-20" value="" style="rounded=0;whiteSpace=wrap;html=1;direction=south;fillColor=#dae8fc;strokeColor=#6c8ebf;" vertex="1" parent="1">
          <mxGeometry x="-256" y="280" width="20" height="56" as="geometry" />
        </mxCell>
        <mxCell id="5iTLilzNBZOsbH6WJitM-21" value="" style="shape=trapezoid;perimeter=trapezoidPerimeter;whiteSpace=wrap;html=1;fixedSize=1;direction=south;size=4;fillColor=#dae8fc;strokeColor=#6c8ebf;" vertex="1" parent="1">
          <mxGeometry x="-232" y="280" width="20" height="56" as="geometry" />
        </mxCell>
      </root>
    </mxGraphModel>
  </diagram>
</mxfile>
